<?xml version="1.0" ?><svg id="Icons" viewBox="0 0 60 60" xmlns="http://www.w3.org/2000/svg"><title/><path d="M16,34a4,4,0,1,0,4,4A4,4,0,0,0,16,34Zm0,6a2,2,0,1,1,2-2A2,2,0,0,1,16,40Z"/><path d="M40,38a4,4,0,1,0,4-4A4,4,0,0,0,40,38Zm6,0a2,2,0,1,1-2-2A2,2,0,0,1,46,38Z"/><path d="M57.44,0a2.552,2.552,0,0,0-2.556,2.346l-.511,6.072a5.028,5.028,0,0,1-4,4.491l-2.948.592a5.724,5.724,0,0,0-4.155-1.5A5.406,5.406,0,0,0,37.88,8a6.066,6.066,0,0,0-1.26.133.981.981,0,0,1-1.037-.374,7.029,7.029,0,0,0-11.167,0,.976.976,0,0,1-1.038.372A6.1,6.1,0,0,0,22.12,8a5.406,5.406,0,0,0-5.391,4.005A5.711,5.711,0,0,0,12.57,13.5l-2.942-.591a5.03,5.03,0,0,1-4-4.493l-.51-6.073A2.563,2.563,0,0,0,0,2.56v9.53a10.007,10.007,0,0,0,7.423,9.657l5.363,1.428A21.866,21.866,0,0,0,12,29a20.167,20.167,0,0,0,.107,2.026,7.98,7.98,0,0,0-3.793,9.206,6.7,6.7,0,0,1-.035,3.661,8,8,0,0,0,7.348,10.088C17.5,57.556,23.246,60,30,60s12.505-2.444,14.373-6.019a8,8,0,0,0,7.348-10.089,6.693,6.693,0,0,1-.035-3.66h0a7.983,7.983,0,0,0-3.794-9.206A20.167,20.167,0,0,0,48,29a21.866,21.866,0,0,0-.786-5.825l5.364-1.429A10.005,10.005,0,0,0,60,12.09V2.56A2.562,2.562,0,0,0,57.44,0ZM17.422,14.105a1,1,0,0,0,1.2-1.168A3.3,3.3,0,0,1,22.12,10a3.993,3.993,0,0,1,.84.088,2.963,2.963,0,0,0,3.084-1.167,5.034,5.034,0,0,1,7.911,0,2.969,2.969,0,0,0,3.083,1.169A3.961,3.961,0,0,1,37.88,10a3.3,3.3,0,0,1,3.5,2.938,1,1,0,0,0,.2.811.993.993,0,0,0,1,.356,3.825,3.825,0,0,1,3.673,1.042l.009.012A2.739,2.739,0,0,1,47,17a2.818,2.818,0,0,1-1.165,2.222,2.826,2.826,0,0,0-1.1,2.489c.008.094.017.187.017.289a3.283,3.283,0,0,1-3.5,3,4.022,4.022,0,0,1-1.888-.466,2.826,2.826,0,0,0-3.35.441,4.022,4.022,0,0,1-4.555.532,2.971,2.971,0,0,0-2.913,0A4.02,4.02,0,0,1,24,24.983a2.831,2.831,0,0,0-3.35-.454,4.029,4.029,0,0,1-1.9.471,3.283,3.283,0,0,1-3.5-3c0-.1.009-.2.015-.274a2.835,2.835,0,0,0-1.106-2.509A2.813,2.813,0,0,1,13,17a2.736,2.736,0,0,1,.741-1.842l.007-.01A3.829,3.829,0,0,1,17.422,14.105ZM2,12.09V2.56a.563.563,0,0,1,1.124-.046l.509,6.068a7.04,7.04,0,0,0,5.6,6.288l2.1.422A4.6,4.6,0,0,0,11,17a4.79,4.79,0,0,0,1.935,3.8.872.872,0,0,1,.3.425L7.937,19.814A8,8,0,0,1,2,12.09ZM30,58c-5.257,0-10.04-1.7-12.034-4.1a29.549,29.549,0,0,0,3.383-.5A14.775,14.775,0,0,0,30,56a14.775,14.775,0,0,0,8.651-2.606,29.549,29.549,0,0,0,3.383.5C40.04,56.3,35.257,58,30,58Zm-4.885-5.734c.049-.019.1-.038.147-.058q.508-.212,1-.459l.089-.041a12.665,12.665,0,0,0,1.922-1.187,2.8,2.8,0,0,1,.671-.368,2.9,2.9,0,0,1,1.916-.074,2.805,2.805,0,0,1,.861.442,12.65,12.65,0,0,0,1.921,1.186l.086.041q.495.247,1.006.459c.048.021.1.04.149.06q.531.214,1.066.4c.019.006.035.013.054.02a14.353,14.353,0,0,1-12.012,0l.053-.02C24.406,52.542,24.761,52.41,25.115,52.266ZM49.957,37.259a6.1,6.1,0,0,1-.192,2.417,8.65,8.65,0,0,0,.026,4.74A6.012,6.012,0,0,1,44,52c-.008,0-.115,0-.286-.006a.281.281,0,0,0-.029,0,28.3,28.3,0,0,1-5.115-.669c-.555-.13-1.087-.272-1.59-.429l-.09-.029a14.958,14.958,0,0,1-2.707-1.144c-.063-.034-.125-.068-.186-.1a9.962,9.962,0,0,1-1.066-.7,4.762,4.762,0,0,0-1.074-.591,4.987,4.987,0,0,0-4.793.595,9.976,9.976,0,0,1-1.053.69c-.069.04-.139.078-.209.116a14.876,14.876,0,0,1-2.645,1.119l-.174.056c-.475.147-.976.281-1.5.4a28.431,28.431,0,0,1-5.172.684c-.009,0-.017,0-.026,0C16.116,52,16.008,52,16,52a6.012,6.012,0,0,1-5.791-7.583,8.654,8.654,0,0,0,.026-4.741,5.99,5.99,0,0,1,8.47-7.021c.138.07.268.154.4.234a5.929,5.929,0,0,1,.534.359,6.012,6.012,0,0,1,1.784,2.181,1,1,0,1,0,1.806-.858,7.944,7.944,0,0,0-.869-1.393A9.791,9.791,0,0,1,24,33a7.187,7.187,0,0,1,2.684.448A9.147,9.147,0,0,0,30,34a9.147,9.147,0,0,0,3.316-.552A7.187,7.187,0,0,1,36,33a9.791,9.791,0,0,1,1.64.178,7.943,7.943,0,0,0-.869,1.392,1,1,0,0,0,1.806.86,6,6,0,0,1,1.645-2.088,5.933,5.933,0,0,1,4.267-1.323A6.045,6.045,0,0,1,49.957,37.259Zm-5.313-7.235a7.957,7.957,0,0,0-5.3,1.468A14.822,14.822,0,0,0,36,31a9.147,9.147,0,0,0-3.316.552A7.187,7.187,0,0,1,30,32a7.187,7.187,0,0,1-2.684-.448A9.147,9.147,0,0,0,24,31a14.822,14.822,0,0,0-3.344.492c-.013-.01-.028-.018-.042-.027l0,0a7.981,7.981,0,0,0-5.253-1.437,7.6,7.6,0,0,0-1.317.222C14.014,29.847,14,29.435,14,29a20,20,0,0,1,.4-3.947A5.694,5.694,0,0,0,18.75,27a6.046,6.046,0,0,0,2.853-.714.83.83,0,0,1,.989.12,6.059,6.059,0,0,0,6.926.847.972.972,0,0,1,.965,0,5.97,5.97,0,0,0,2.9.746,5.8,5.8,0,0,0,4.037-1.6.829.829,0,0,1,.99-.1A6.043,6.043,0,0,0,41.25,27,5.694,5.694,0,0,0,45.6,25.053,20,20,0,0,1,46,29c0,.435-.014.847-.039,1.246A7.6,7.6,0,0,0,44.644,30.024ZM58,12.09a8,8,0,0,1-5.937,7.723L46.779,21.22a.845.845,0,0,1,.281-.417A4.8,4.8,0,0,0,49,17a4.576,4.576,0,0,0-.336-1.708l2.1-.422a7.038,7.038,0,0,0,5.6-6.286l.51-6.067A.563.563,0,0,1,58,2.56Z"/></svg>